<svg width="28" height="28" viewBox="0 0 28 28" fill="none" xmlns="http://www.w3.org/2000/svg">
<path d="M14.049 16.8652C14.4958 17.3295 15.2344 17.3436 15.6986 16.8967C16.1628 16.4499 16.1769 15.7114 15.7301 15.2471L10.7088 10.0302C10.262 9.56594 9.52346 9.55182 9.05922 9.99864C8.59499 10.4455 8.58087 11.184 9.0277 11.6483L14.049 16.8652Z" fill="#D8D8D8"/>
<mask id="mask0_4_315" style="mask-type:luminance" maskUnits="userSpaceOnUse" x="8" y="9" width="9" height="9">
<path d="M14.049 16.8652C14.4958 17.3295 15.2344 17.3436 15.6986 16.8967C16.1628 16.4499 16.1769 15.7114 15.7301 15.2471L10.7088 10.0302C10.262 9.56594 9.52346 9.55182 9.05922 9.99864C8.59499 10.4455 8.58087 11.184 9.0277 11.6483L14.049 16.8652Z" fill="white"/>
</mask>
<g mask="url(#mask0_4_315)">
<path d="M5.83337 29.1666V1.16663H33.8334V29.1666H5.83337Z" fill="#F0F6FC"/>
</g>
<path d="M14 15.8501L8.99162 10.8417C8.53601 10.3861 7.79732 10.3861 7.34171 10.8417C6.8861 11.2973 6.8861 12.036 7.34171 12.4916L13.175 18.325C13.6307 18.7806 14.3693 18.7806 14.825 18.325L20.6583 12.4916C21.1139 12.036 21.1139 11.2973 20.6583 10.8417C20.2027 10.3861 19.464 10.3861 19.0084 10.8417L14 15.8501Z" fill="#5865F2"/>
<mask id="mask1_4_315" style="mask-type:luminance" maskUnits="userSpaceOnUse" x="7" y="10" width="14" height="9">
<path d="M14 15.8501L8.99162 10.8417C8.53601 10.3861 7.79732 10.3861 7.34171 10.8417C6.8861 11.2973 6.8861 12.036 7.34171 12.4916L13.175 18.325C13.6307 18.7806 14.3693 18.7806 14.825 18.325L20.6583 12.4916C21.1139 12.036 21.1139 11.2973 20.6583 10.8417C20.2027 10.3861 19.464 10.3861 19.0084 10.8417L14 15.8501Z" fill="white"/>
</mask>
<g mask="url(#mask1_4_315)">
<path d="M0 28V0H28V28H0Z" fill="#5865F2"/>
</g>
</svg>
