<svg width="104" height="103" viewBox="0 0 104 103" fill="none" xmlns="http://www.w3.org/2000/svg">
<path d="M44.6026 27.007C46.2948 25.331 49.0386 25.331 50.7308 27.007C52.4231 28.683 52.4231 31.4003 50.7308 33.0763L42.0642 41.6597C40.3719 43.3357 37.6282 43.3357 35.9359 41.6597C34.2436 39.9837 34.2436 37.2663 35.9359 35.5903L44.6026 27.007ZM17.3334 72.9583H86.6667V81.5417H17.3334V72.9583Z" fill="#D8D8D8"/>
<mask id="mask0_4_254" style="mask-type:luminance" maskUnits="userSpaceOnUse" x="17" y="25" width="70" height="57">
<path d="M44.6026 27.007C46.2948 25.331 49.0386 25.331 50.7308 27.007C52.4231 28.683 52.4231 31.4003 50.7308 33.0763L42.0642 41.6597C40.3719 43.3357 37.6282 43.3357 35.9359 41.6597C34.2436 39.9837 34.2436 37.2663 35.9359 35.5903L44.6026 27.007ZM17.3334 72.9583H86.6667V81.5417H17.3334V72.9583Z" fill="white"/>
</mask>
<g mask="url(#mask0_4_254)">
<path d="M104 0H6.10352e-05V103H104V0Z" fill="#F0F6FC"/>
</g>
<path d="M56.3334 27.5277V64.3813C56.3334 66.748 54.3933 68.6667 52 68.6667C49.6068 68.6667 47.6667 66.748 47.6667 64.3813V27.5277L37.7308 37.368C36.0385 39.044 33.2948 39.044 31.6026 37.368C29.9103 35.692 29.9103 32.9747 31.6026 31.2987L48.9359 14.132C50.6282 12.456 53.3719 12.456 55.0642 14.132L72.3975 31.2987C74.0898 32.9747 74.0898 35.692 72.3975 37.368C70.7052 39.044 67.9615 39.044 66.2692 37.368L56.3334 27.5277ZM86.6667 81.5417V55.7917C86.6667 53.4214 88.6068 51.5 91 51.5C93.3933 51.5 95.3334 53.4214 95.3334 55.7917V85.8333C95.3334 88.2036 93.3933 90.125 91 90.125H13C10.6068 90.125 8.66669 88.2036 8.66669 85.8333V55.7917C8.66669 53.4214 10.6068 51.5 13 51.5C15.3933 51.5 17.3334 53.4214 17.3334 55.7917V81.5417H86.6667Z" fill="black"/>
<mask id="mask1_4_254" style="mask-type:luminance" maskUnits="userSpaceOnUse" x="8" y="12" width="88" height="79">
<path d="M56.3334 27.5277V64.3813C56.3334 66.748 54.3933 68.6667 52 68.6667C49.6068 68.6667 47.6667 66.748 47.6667 64.3813V27.5277L37.7308 37.368C36.0385 39.044 33.2948 39.044 31.6026 37.368C29.9103 35.692 29.9103 32.9747 31.6026 31.2987L48.9359 14.132C50.6282 12.456 53.3719 12.456 55.0642 14.132L72.3975 31.2987C74.0898 32.9747 74.0898 35.692 72.3975 37.368C70.7052 39.044 67.9615 39.044 66.2692 37.368L56.3334 27.5277ZM86.6667 81.5417V55.7917C86.6667 53.4214 88.6068 51.5 91 51.5C93.3933 51.5 95.3334 53.4214 95.3334 55.7917V85.8333C95.3334 88.2036 93.3933 90.125 91 90.125H13C10.6068 90.125 8.66669 88.2036 8.66669 85.8333V55.7917C8.66669 53.4214 10.6068 51.5 13 51.5C15.3933 51.5 17.3334 53.4214 17.3334 55.7917V81.5417H86.6667Z" fill="white"/>
</mask>
<g mask="url(#mask1_4_254)">
<path d="M104 0H0V103H104V0Z" fill="#5865F2"/>
</g>
</svg>
